<?xml version="1.0" encoding="utf-8"?>
<!-- Generator: Adobe Illustrator 13.0.0, SVG Export Plug-In . SVG Version: 6.00 Build 14948)  -->
<!DOCTYPE svg PUBLIC "-//W3C//DTD SVG 1.1 Tiny//EN" "http://www.w3.org/Graphics/SVG/1.1/DTD/svg11-tiny.dtd">
<svg version="1.1" baseProfile="tiny" id="Layer_1" xmlns="http://www.w3.org/2000/svg" xmlns:xlink="http://www.w3.org/1999/xlink"
	 x="0px" y="0px" width="159.186px" height="78.907px" viewBox="0 0 159.186 78.907" xml:space="preserve">
<g>
	<path fill="#FFFFFF" d="M7.082,53.342c-2.151,0-3.765-0.687-4.841-2.062c-1.075-1.345-1.613-3.316-1.613-5.916
		c0-0.478,0.239-0.717,0.717-0.717c0.179,0,0.336,0.066,0.47,0.201c0.135,0.135,0.202,0.307,0.202,0.516
		c0,1.464,0.164,2.63,0.493,3.496c0.329,0.866,0.74,1.531,1.232,1.994c0.493,0.464,1.038,0.762,1.636,0.896
		c0.597,0.135,1.165,0.201,1.703,0.201c1.613,0,2.861-0.56,3.742-1.681c0.881-1.12,1.322-2.681,1.322-4.684
		c0-1.075-0.187-1.979-0.56-2.711c-0.374-0.732-0.822-1.329-1.345-1.793c-0.523-0.463-1.069-0.829-1.636-1.099
		c-0.568-0.269-1.031-0.492-1.39-0.672l-0.762-0.358c-0.448-0.18-1.001-0.44-1.658-0.784c-0.658-0.344-1.293-0.821-1.905-1.435
		C2.278,36.125,1.748,35.37,1.3,34.473s-0.672-2.001-0.672-3.316c0-2.271,0.522-4.138,1.569-5.603
		c1.165-1.613,2.793-2.42,4.885-2.42c2.151,0,3.779,0.688,4.885,2.062c1.076,1.345,1.613,3.332,1.613,5.961
		c0,0.18-0.067,0.344-0.202,0.493c-0.134,0.149-0.307,0.224-0.515,0.224c-0.209,0-0.381-0.074-0.516-0.224s-0.202-0.313-0.202-0.493
		c0-2.271-0.434-3.959-1.3-5.064c-0.807-1.046-2.062-1.568-3.765-1.568c-1.584,0-2.824,0.627-3.72,1.882
		c-0.896,1.226-1.344,2.81-1.344,4.751c0,1.076,0.179,1.987,0.538,2.734s0.799,1.367,1.322,1.859
		c0.522,0.493,1.068,0.89,1.636,1.188c0.567,0.299,1.076,0.537,1.524,0.717l0.717,0.313c0.388,0.18,0.911,0.434,1.568,0.762
		c0.657,0.329,1.3,0.785,1.927,1.367c0.627,0.583,1.172,1.315,1.636,2.196c0.463,0.882,0.694,1.979,0.694,3.294
		c0,1.106-0.142,2.122-0.426,3.048c-0.284,0.927-0.68,1.733-1.188,2.42C10.802,52.581,9.173,53.342,7.082,53.342z"/>
</g>
<g>
	<path fill="#FFFFFF" d="M21.782,53.387c-0.479,0-0.717-0.239-0.717-0.717V23.851c0-0.179,0.067-0.336,0.202-0.471
		c0.135-0.134,0.306-0.201,0.516-0.201c0.208,0,0.381,0.067,0.515,0.201c0.135,0.135,0.202,0.292,0.202,0.471V52.67
		C22.499,53.148,22.26,53.387,21.782,53.387z"/>
</g>
<g>
	<path fill="#FFFFFF" d="M36.214,53.387c-2.122,0-3.735-0.687-4.84-2.062c-1.076-1.345-1.613-3.316-1.613-5.916V31.112
		c0-2.6,0.538-4.571,1.613-5.916s2.689-2.017,4.84-2.017s3.765,0.672,4.841,2.017c1.075,1.345,1.613,3.316,1.613,5.916
		c0,0.479-0.24,0.718-0.717,0.718c-0.478,0-0.717-0.239-0.717-0.718c0-1.463-0.165-2.629-0.493-3.496
		c-0.329-0.866-0.74-1.523-1.232-1.972c-0.493-0.448-1.031-0.739-1.614-0.874c-0.583-0.135-1.143-0.201-1.681-0.201
		c-0.538,0-1.105,0.066-1.703,0.201c-0.598,0.135-1.143,0.426-1.636,0.874s-0.904,1.105-1.232,1.972
		c-0.329,0.867-0.493,2.033-0.493,3.496V45.41c0,2.24,0.433,3.914,1.3,5.02c0.866,1.046,2.121,1.568,3.765,1.568
		c1.643,0,2.898-0.522,3.765-1.568c0.836-1.046,1.255-2.719,1.255-5.02v-3.944h-5.827c-0.479,0-0.717-0.239-0.717-0.717
		s0.239-0.718,0.717-0.718h6.543c0.478,0,0.717,0.24,0.717,0.718v4.661c0,2.6-0.538,4.571-1.613,5.916
		C39.948,52.701,38.335,53.387,36.214,53.387z"/>
</g>
<g>
	<path fill="#FFFFFF" d="M62.477,53.387c-0.329,0-0.538-0.149-0.627-0.448L51.586,27.527V52.67c0,0.478-0.239,0.717-0.717,0.717
		c-0.479,0-0.717-0.239-0.717-0.717V23.851c0-0.388,0.194-0.611,0.583-0.672c0.388-0.06,0.657,0.09,0.807,0.448L61.76,49.04V23.851
		c0-0.179,0.067-0.336,0.202-0.471c0.135-0.134,0.306-0.201,0.516-0.201c0.208,0,0.381,0.067,0.516,0.201
		c0.134,0.135,0.202,0.292,0.202,0.471V52.67c0,0.389-0.195,0.627-0.583,0.717H62.477z"/>
</g>
<g>
	<path fill="#FFFFFF" d="M85.648,52.536c0.06,0.18,0.029,0.352-0.09,0.516s-0.269,0.276-0.447,0.336h-0.18
		c-0.359,0-0.583-0.18-0.672-0.538l-2.018-8.694h-7.933l-2.017,8.694c-0.061,0.18-0.172,0.329-0.336,0.448
		c-0.165,0.119-0.336,0.149-0.515,0.09c-0.209-0.06-0.366-0.172-0.471-0.336c-0.105-0.164-0.127-0.336-0.067-0.516l6.678-28.818
		c0.09-0.359,0.313-0.538,0.672-0.538c0.388,0,0.627,0.179,0.717,0.538L85.648,52.536z M81.928,42.765l-3.675-15.776l-3.63,15.776
		H81.928z"/>
</g>
<g>
	<path fill="#FFFFFF" d="M103.441,53.387H93.312c-0.479,0-0.717-0.239-0.717-0.717V23.851c0-0.179,0.067-0.336,0.201-0.471
		c0.135-0.134,0.307-0.201,0.516-0.201c0.18,0,0.336,0.067,0.471,0.201c0.135,0.135,0.201,0.292,0.201,0.471v28.146h9.457
		c0.209,0,0.381,0.067,0.516,0.202c0.135,0.134,0.202,0.291,0.202,0.471C104.158,53.148,103.919,53.387,103.441,53.387z"/>
</g>
<g>
	<path fill="#FFFFFF" d="M151.433,66.227c-2.464,0-4.518-0.495-6.159-1.485c-1.644-0.99-3.093-2.21-4.348-3.659
		c-1.304,0.725-2.718,1.245-4.239,1.559s-3.151,0.471-4.891,0.471c-2.416,0-4.637-0.314-6.666-0.942
		c-2.029-0.627-3.768-1.63-5.217-3.007s-2.585-3.176-3.406-5.398c-0.822-2.221-1.231-4.95-1.231-8.188V26.882
		c0-3.235,0.409-5.966,1.231-8.188c0.821-2.222,1.957-4.021,3.406-5.398s3.188-2.379,5.217-3.007s4.25-0.942,6.666-0.942
		c2.415,0,4.637,0.314,6.666,0.942s3.768,1.63,5.217,3.007s2.584,3.177,3.406,5.398c0.82,2.222,1.231,4.952,1.231,8.188v18.694
		c0,4.155-0.7,7.561-2.101,10.217c0.676,0.532,1.436,0.942,2.281,1.231c0.846,0.29,1.823,0.46,2.936,0.508V66.227z M131.144,40.65
		c1.643,0.242,3.019,0.785,4.131,1.63c1.11,0.846,2.076,1.896,2.898,3.152h0.145V25.578c0-2.897-0.58-4.854-1.739-5.869
		c-1.159-1.014-2.753-1.521-4.782-1.521s-3.623,0.508-4.782,1.521c-1.159,1.015-1.739,2.972-1.739,5.869v21.304
		c0,2.898,0.58,4.854,1.739,5.869c1.159,1.014,2.753,1.521,4.782,1.521c1.594,0,2.85-0.265,3.768-0.797
		c-0.677-0.966-1.377-1.823-2.102-2.572s-1.497-1.269-2.318-1.559V40.65z"/>
</g>
</svg>
